<svg id="Layer_1" data-name="Layer 1" xmlns="http://www.w3.org/2000/svg" viewBox="0 0 1555.49 2472.56"><defs><style>.cls-1{fill:#ec2027;fill-rule:evenodd;}</style></defs><path class="cls-1" d="M2965.65,3101.39c99,0,179.35,80.31,179.35,179.34s-80.32,179.35-179.35,179.35-179.34-80.31-179.34-179.35,80.31-179.34,179.34-179.34m-941.78,0c-99,0-179.34,80.31-179.34,179.34s80.31,179.35,179.34,179.35,179.34-80.31,179.34-179.35S2122.9,3101.39,2023.87,3101.39ZM1749.65,1262.73,2859.4,2889.38c6.79,9.68,49.09,66.33,122.32,86.16h0c161.28,8.37,289.51,141.82,289.51,305.18,0,121.25-70.63,226-173,275.4,16.44,52,34.61,66.79,113.58,67.7,83.25,1,92.35,121.73-33.93,110.75-92.71-8.06-154.84-101-181.31-149.78q-15.27,1.53-31,1.55c-168.76,0-305.61-136.85-305.61-305.62a304.09,304.09,0,0,1,60.4-182.39l-1-1.28a255.42,255.42,0,0,0,2.81-37.76c0-320.69-455-320.68-455,0a255.42,255.42,0,0,0,2.81,37.76l-1,1.28a304.14,304.14,0,0,1,60.39,182.39c0,168.77-136.85,305.62-305.61,305.62s-305.62-136.85-305.62-305.62c0-163.36,128.24-296.81,289.52-305.18h0c73.23-19.83,115.53-76.48,122.32-86.16l194.09-284.48-21-43.37C2099.58,2127.18,1831.67,1655.4,1749.65,1262.73ZM2496,2522.14a76,76,0,1,1-76,76A76,76,0,0,1,2496,2522.14Zm743.88-1259.41L2542.34,2285.15l162.22,237.77C2905.61,2099.36,3160.27,1643.8,3239.88,1262.73Z" transform="translate(-1718.25 -1262.73)"/></svg>