<?xml version="1.0" encoding="utf-8"?>
<!-- Generator: Adobe Illustrator 21.1.0, SVG Export Plug-In . SVG Version: 6.00 Build 0)  -->
<svg version="1.1" id="Layer_2" xmlns="http://www.w3.org/2000/svg" xmlns:xlink="http://www.w3.org/1999/xlink" x="0px" y="0px"
	 viewBox="0 0 62.5 62.7" style="enable-background:new 0 0 62.5 62.7;" xml:space="preserve">
<style type="text/css">
	.st0{fill:#FF0000;}
	.st1{fill:none;stroke:#491A00;stroke-width:1.3;stroke-miterlimit:10;}
	.st2{fill:#491A00;}
</style>
<rect x="9.4" y="9.7" transform="matrix(0.7071 0.7071 -0.7071 0.7071 31.308 -12.8282)" class="st0" width="43.4" height="43.4"/>
<rect x="13.5" y="13.7" transform="matrix(0.7071 0.7071 -0.7071 0.7071 31.308 -12.8282)" class="st1" width="35.3" height="35.3"/>
<g>
	<path class="st2" d="M25.1,42.2l0-9.2l2.3,0c0.1,2.2,0.6,3.9,1.4,5.2c0.8,1.3,1.8,1.9,3,1.9c0.6,0,1.2-0.2,1.6-0.6
		c0.4-0.4,0.6-1,0.6-1.7c0-0.7-0.2-1.4-0.6-2c-0.4-0.6-1-1.2-1.9-1.8c-0.4-0.3-0.9-0.6-1.6-1.1c-1.4-1-2.3-1.7-2.7-2
		c-1-1-1.8-1.8-2.1-2.6c-0.4-0.8-0.6-1.6-0.6-2.6c0-1.6,0.5-3,1.5-4.1c1-1.1,2.3-1.6,3.8-1.6c1,0,1.8,0.1,2.5,0.4
		c0.7,0.3,1.3,0.8,1.9,1.4l0.8-1.3l1.8,0l0,8.1l-2.3,0c-0.1-1.9-0.5-3.4-1.2-4.5c-0.7-1.1-1.5-1.6-2.6-1.6c-0.7,0-1.2,0.2-1.6,0.6
		c-0.4,0.4-0.6,0.9-0.6,1.5c0,1,1.1,2.2,3.2,3.6c0.1,0.1,0.3,0.2,0.3,0.2c2.3,1.6,3.8,2.9,4.6,4c0.7,1.1,1.1,2.5,1.1,4
		c0,1.9-0.5,3.4-1.5,4.6c-1,1.1-2.4,1.7-4.1,1.7c-0.9,0-1.7-0.2-2.4-0.5c-0.7-0.3-1.4-0.8-1.9-1.5l-0.9,1.5L25.1,42.2z"/>
</g>
</svg>
