<svg id="Layer_1" data-name="Layer 1" xmlns="http://www.w3.org/2000/svg" viewBox="0 0 1031.64 1022.28"><defs><style>.cls-1{fill:#ec2027;}.cls-1,.cls-2{fill-rule:evenodd;}.cls-2{fill:#fff;}</style></defs><path class="cls-1" d="M15.3,457,764.47,93.87c114.06-44.62,128.71,14.24,255.18-75.77,5.21-1.35,8.95.09,10.6,3.47C1048.42,58.77,883.4,122.86,856,135.84L639.24,238.58C618.49,250.7,614,254,619.85,274.29c7.87,27.15,10.76,74.63-17.14,89.49L136.62,603.05C6.1,670.05-22.26,476,15.3,457"/><path class="cls-2" d="M745.13,45C750.19,22,766.56.68,791.81,0c29.55-.78,46.5,26.24,50.83,52.3,8.18,49.26,4.83,102.09-2.52,151.25C830.18,270,812,336.34,791.22,400.11c-27,82.56-59.56,163.71-94.5,243.18-43.24,98.36-90.61,195.07-140,290.46-31,59.87-112.82,118.66-177.87,71.22-.36-.27-.66-.51-1-.8-20.12-17.12-33.46-38.67-34.63-65.51-1.61-36.72,20-72,38.77-102.2C468.59,696.76,550.59,552,619.19,402.51c52.24-113.85,98.95-235,125.94-357.55"/><path class="cls-1" d="M761.94,48.66Q690.14,372.23,396.57,845.53c-28.38,45.76-61.21,99.94-7.62,145.53,55.94,40.79,126.79-15.72,152.45-65.23Q866.2,299.05,825.66,55.14C817.39,5.41,771,5.91,761.94,48.66"/><path class="cls-2" d="M785.39,107.58A21.14,21.14,0,1,1,764,128.44a21.14,21.14,0,0,1,21.43-20.86"/><path class="cls-2" d="M454,883.49A26.7,26.7,0,1,1,427,909.82,26.7,26.7,0,0,1,454,883.49"/><path class="cls-2" d="M689.94,172.53l3.51-17.88L75.61,460.19C33.76,480.88,43.19,534.72,63.75,567c-9.35-34.46-17.65-65.31,37.66-97Z"/></svg>